<svg xmlns="http://www.w3.org/2000/svg" width="150" height="150" viewBox="0 0 150 150"><title>Life</title><path d="M105.8381,44.60049a15.02581,15.02581,0,0,0-4.93438-1.43144,20.37906,20.37906,0,0,0-2.17645-.14619L90.49279,43l1.00251,1.20657A20.36925,20.36925,0,0,0,79.083,56.71207,20.358,20.358,0,0,0,59.93648,43.02335L52.35921,43l.98149,1.11949c-.045.01569-.0905.02445-.13551.0405A20.49959,20.49959,0,0,0,40.70482,70.1449q.16458.49548.32892.99095V71.246a1.86022,1.86022,0,0,1,.2192.55044c5.09494,11.62681,21.75383,26.29917,31.17638,33.97291V110.994H79.083s30.48324-22.79171,37.72033-39.19749a1.86254,1.86254,0,0,0,.2192-.55044v-.11018A20.38641,20.38641,0,0,0,105.8381,44.60049Z" fill="#fff" stroke="#2d2d2d" stroke-linecap="round" stroke-linejoin="round"/><path d="M79.03048,94.4786,68.12215,102.182c1.541,1.31189,2.99584,2.51944,4.30716,3.58737L70.96958,110.994H79.083A244.71622,244.71622,0,0,0,98.438,94.56921Z" fill="#2d2d2d" stroke="#2d2d2d" stroke-linejoin="round"/><path d="M92.84286,43.16911a20.376,20.376,0,0,0-21.82077,13.543A20.28286,20.28286,0,0,0,45.24736,44.12434l-.10316.03577A20.49943,20.49943,0,0,0,32.64388,70.14492l.32895.99095h0v.1101a1.86489,1.86489,0,0,1,.21931.55053c7.237,16.5158,37.83,39.1975,37.83,39.1975h0s30.48327-22.7918,37.72031-39.19749a1.86476,1.86476,0,0,0,.2193-.55053v-.1101h0A20.38663,20.38663,0,0,0,97.7772,44.60048,15.02688,15.02688,0,0,0,92.84286,43.16911Z" fill="#8fd8f2" stroke="#2d2d2d" stroke-linecap="round" stroke-linejoin="round"/><path d="M70.74788,89.43511a21.1976,21.1976,0,0,1,16.34727,7.68024c-8.5761,7.78947-15.299,13.56423-15.299,13.56423l-1.086.00133-.00108-.00053.00108.00053v-.00133c.01594-.01458-7.73457-5.7745-16.31041-13.56317A21.19772,21.19772,0,0,1,70.74788,89.43511Z" fill="#259ed9"/><path d="M70.71018,111.22415a.545.545,0,0,1-.36589-.14158c-.04344-.035-.16225-.1262-.35-.26937-7.0259-5.38953-12.55754-10.20482-15.95966-13.29512a.5427.5427,0,0,1-.053-.74873,21.736,21.736,0,0,1,16.76459-7.877h.00217a21.734,21.734,0,0,1,16.76454,7.87652.54269.54269,0,0,1-.053.74873c-8.483,7.70515-15.24276,13.51623-15.30957,13.574a.54372.54372,0,0,1-.35316.131l-1.086.00159Zm.18664-1.08755h.69782c1.03082-.88819,7.1574-6.18545,14.74643-13.06923a20.64767,20.64767,0,0,0-15.59272-7.089h-.00217a20.64883,20.64883,0,0,0-15.59167,7.089c3.42546,3.09563,8.79378,7.7428,15.52171,12.89849C70.76213,110.03161,70.83531,110.08781,70.89682,110.1366Z" fill="#2d2d2d"/><path d="M70.71021,95.47605h0a4.34386,4.34386,0,0,1-4.34386-4.34386V84.6164a4.34387,4.34387,0,0,1,4.34386-4.34387h0a4.34387,4.34387,0,0,1,4.34386,4.34387v6.51579A4.34386,4.34386,0,0,1,70.71021,95.47605Z" fill="#fff"/><path d="M70.71018,96.019a4.89219,4.89219,0,0,1-4.88685-4.88684v-6.5158a4.88685,4.88685,0,0,1,9.77369,0v6.5158A4.8922,4.8922,0,0,1,70.71018,96.019Zm0-15.20352a3.80548,3.80548,0,0,0-3.80088,3.80088v6.5158a3.80088,3.80088,0,0,0,7.60176,0v-6.5158A3.80549,3.80549,0,0,0,70.71018,80.81553Z" fill="#2d2d2d"/><path d="M59.85056,72.67079h21.7193a3.2579,3.2579,0,0,1,3.2579,3.2579h0a3.2579,3.2579,0,0,1-3.2579,3.2579H59.85056a3.2579,3.2579,0,0,1-3.2579-3.2579h0A3.2579,3.2579,0,0,1,59.85056,72.67079Z" fill="#fff"/><path d="M81.56983,79.72957H59.85052a3.80088,3.80088,0,0,1,0-7.60176H81.56983a3.80088,3.80088,0,1,1,0,7.60176ZM59.85052,73.21378a2.71491,2.71491,0,0,0,0,5.42982H81.56983a2.71491,2.71491,0,1,0,0-5.42982Z" fill="#2d2d2d"/><rect x="60.93652" y="60.72517" width="19.54738" height="27.14913" rx="9.77368" fill="#fff"/><path d="M70.71018,88.41729A10.32841,10.32841,0,0,1,60.39351,78.10062V70.49886a10.31667,10.31667,0,0,1,20.63334,0h0v7.60176A10.32841,10.32841,0,0,1,70.71018,88.41729Zm0-27.14913a9.24137,9.24137,0,0,0-9.23071,9.2307v7.60176a9.23071,9.23071,0,1,0,18.46141,0V70.49886A9.24133,9.24133,0,0,0,70.71018,61.26816Z" fill="#2d2d2d"/><path d="M80.4839,71.03654V72.407c-2.67667,0-5.4367-6.3999-5.4367-6.3999S71.74239,72.407,60.93652,72.407V70.65627a9.77438,9.77438,0,0,1,9.77478-9.774q.30245,0,.60446.01874A10.02652,10.02652,0,0,1,80.4839,71.03654Z" fill="#2d2d2d"/><path d="M80.48387,72.9497c-2.3851,0-4.60051-3.952-5.51786-5.82645-1.35428,1.81666-5.32907,5.82645-14.02952,5.82645a.54266.54266,0,0,1-.543-.54235v-1.751a10.35964,10.35964,0,0,1,3.24623-7.51271,10.25334,10.25334,0,0,1,7.70887-2.78441,10.5288,10.5288,0,0,1,9.67824,10.67721V72.4066a.54267.54267,0,0,1-.54224.5431ZM70.70381,61.42563a9.23016,9.23016,0,0,0-9.22434,9.2307V71.8579c9.884-.2068,13.05491-6.04123,13.08673-6.10166a.51744.51744,0,0,1,.50162-.29111.543.543,0,0,1,.47829.32664c.9078,2.103,2.79764,5.31159,4.39477,5.95638v-.71162a9.442,9.442,0,0,0-8.658-9.59341Q70.99334,61.42565,70.70381,61.42563Z" fill="#2d2d2d"/><rect x="70.1672" y="95.47607" width="1.08597" height="15.20352" fill="#2d2d2d"/><path d="M74.82178,100.2314a.542.542,0,0,1-.3839-.15907l-4.06706-4.06655a.54293.54293,0,0,1,.76778-.76777l3.72876,3.72876c1.17187-.95075,4.7108-4.19221,3.17518-7.53654a.54264.54264,0,1,1,.98628-.45284h0c2.19633,4.78025-3.64392,8.9783-3.8942,9.15434A.53985.53985,0,0,1,74.82178,100.2314Z" fill="#2d2d2d"/><path d="M66.6887,100.2314a.53979.53979,0,0,1-.31284-.09969c-.25028-.176-6.09159-4.37409-3.89527-9.15434a.54264.54264,0,1,1,.98628.45285c-1.53563,3.34486,2.00437,6.58578,3.17623,7.53653L70.37082,95.238a.54293.54293,0,1,1,.77545.76011l-.00767.00767-4.066,4.06662A.542.542,0,0,1,66.6887,100.2314Z" fill="#2d2d2d"/><path d="M70.75471,84.41809A5.0986,5.0986,0,0,1,65.66213,79.325a.543.543,0,0,1,1.086,0,4.00715,4.00715,0,0,0,8.0143,0,.543.543,0,0,1,1.086,0A5.09949,5.09949,0,0,1,70.75471,84.41809Z" fill="#2d2d2d"/></svg>